<svg class="svg" viewBox="0 0 14 14" xmlns="http://www.w3.org/2000/svg"><path d="M13.72 7.159c0-.496-.045-.974-.127-1.432H7v2.708h3.767c-.162.875-.655 1.616-1.397 2.113v1.756h2.263c1.323-1.219 2.087-3.013 2.087-5.145z" fill-rule="evenodd" fill-opacity="1" fill="#4285f4" stroke="none"></path><path d="M7 14c1.89 0 3.475-.627 4.633-1.696L9.37 10.548c-.627.42-1.43.668-2.37.668-1.824 0-3.367-1.231-3.918-2.886H.745v1.814C1.896 12.43 4.264 14 7 14z" fill-rule="evenodd" fill-opacity="1" fill="#34a853" stroke="none"></path><path d="M3.083 8.33c-.14-.42-.22-.869-.22-1.33 0-.461.08-.91.22-1.33V3.856H.745C.27 4.801 0 5.87 0 7c0 1.13.27 2.199.745 3.144L3.083 8.33z" fill-rule="evenodd" fill-opacity="1" fill="#fbbc05" stroke="none"></path><path d="M7 2.784c1.028 0 1.95.353 2.676 1.047l2.008-2.008C10.47.693 8.887 0 7 0 4.264 0 1.896 1.569.745 3.856L3.083 5.67C3.633 4.015 5.177 2.784 7 2.784z" fill-rule="evenodd" fill-opacity="1" fill="#ea4335" stroke="none"></path></svg>