<svg class="svg" viewBox="0 0 20 30" xmlns="http://www.w3.org/2000/svg"><path d="M10 15c0-2.761 2.239-5 5-5 2.761 0 5 2.239 5 5 0 2.761-2.239 5-5 5-2.761 0-5-2.238-5-5z" fill-rule="nonzero" fill-opacity="1" fill="#1abcfe" stroke="none"></path><path d="M0 25c0-2.761 2.239-5 5-5h5v5c0 2.761-2.239 5-5 5-2.761 0-5-2.239-5-5z" fill-rule="nonzero" fill-opacity="1" fill="#0acf83" stroke="none"></path><path d="M10 0v10h5c2.761 0 5-2.239 5-5 0-2.761-2.239-5-5-5h-5z" fill-rule="nonzero" fill-opacity="1" fill="#ff7262" stroke="none"></path><path d="M0 5c0 2.761 2.239 5 5 5h5V0H5C2.239 0 0 2.239 0 5z" fill-rule="nonzero" fill-opacity="1" fill="#f24e1e" stroke="none"></path><path d="M0 15c0 2.761 2.239 5 5 5h5V10H5c-2.761 0-5 2.239-5 5z" fill-rule="nonzero" fill-opacity="1" fill="#a259ff" stroke="none"></path></svg>